<svg xmlns="http://www.w3.org/2000/svg" width="512" height="512" viewBox="0 0 512 512" version="1.1">
	<path d="M 0 256.002 L 0 512.004 256.250 511.752 L 512.500 511.500 512.752 255.750 L 513.004 0 256.502 0 L 0 0 0 256.002 M 0.492 256.500 C 0.492 397.300, 0.608 454.751, 0.750 384.170 C 0.892 313.588, 0.892 198.388, 0.750 128.170 C 0.608 57.951, 0.492 115.700, 0.492 256.500 M 272.098 122.382 C 270.891 123.836, 198 374.696, 198 377.394 C 198 379.956, 201.632 381.532, 219.912 386.903 C 240.686 393.006, 240.728 392.998, 243.918 382.256 C 255.556 343.069, 315 136.265, 315 134.964 C 315 134.019, 314.438 132.786, 313.750 132.224 C 312.048 130.835, 278.669 121, 275.656 121 C 274.330 121, 272.729 121.622, 272.098 122.382 M 167.500 179.211 C 166.400 179.843, 147.838 196.949, 126.250 217.223 C 98.618 243.173, 87 254.710, 87 256.196 C 87 257.360, 88.735 259.921, 90.865 261.904 C 92.990 263.882, 110.778 280.575, 130.392 299 C 150.007 317.425, 166.943 332.906, 168.028 333.403 C 171.127 334.821, 173.003 333.383, 185.511 320 C 199.792 304.720, 200.480 303.765, 199.084 301.158 C 198.503 300.071, 187.201 289.638, 173.969 277.973 C 160.738 266.308, 150.044 256.371, 150.206 255.891 C 150.368 255.411, 161.300 245.531, 174.500 233.936 C 187.700 222.342, 198.840 212.248, 199.255 211.507 C 199.671 210.765, 199.594 209.110, 199.084 207.829 C 197.992 205.086, 171.962 177.928, 170.500 178.007 C 169.950 178.037, 168.600 178.578, 167.500 179.211 M 328.688 191.228 C 314.236 206.199, 312.612 208.509, 314.343 211.631 C 314.979 212.779, 326.188 223.094, 339.250 234.553 C 352.313 246.012, 363 255.725, 363 256.138 C 363 256.551, 352.036 266.555, 338.635 278.371 C 325.235 290.186, 314.047 300.448, 313.774 301.176 C 313.500 301.904, 313.552 303.250, 313.888 304.166 C 314.987 307.158, 339.440 333, 341.757 333.618 C 343.067 333.968, 344.956 333.578, 346.257 332.690 C 350.338 329.904, 424.482 259.900, 425.378 257.986 C 425.861 256.955, 426.011 255.471, 425.711 254.688 C 425.411 253.906, 410.615 239.620, 392.832 222.942 C 375.050 206.263, 357.017 189.328, 352.761 185.309 C 348.504 181.289, 344.229 177.990, 343.261 177.978 C 342.292 177.966, 335.735 183.929, 328.688 191.228" stroke="none" fill="black" fill-rule="evenodd"/>
</svg>